<svg xmlns="http://www.w3.org/2000/svg" width="64" height="64" viewBox="0 0 64 64">
  <rect width="64" height="64" rx="10" fill="#1a2744"/>
  <path d="M32 6 L54 14 L54 32 C54 46 44 57 32 61 C20 57 10 46 10 32 L10 14 Z" fill="#2a6ab5"/>
  <path d="M32 13 L48 19 L48 32 C48 42 41 51 32 55 C23 51 16 42 16 32 L16 19 Z" fill="#1a4a8a"/>
  <rect x="25" y="33" width="14" height="11" rx="2" fill="white" opacity="0.95"/>
  <path d="M27.5 33 L27.5 29 C27.5 25.5 36.5 25.5 36.5 29 L36.5 33" stroke="white" stroke-width="2.8" fill="none" stroke-linecap="round"/>
  <circle cx="32" cy="38.5" r="2" fill="#1a4a8a"/>
</svg>
